<?xml version="1.0" encoding="utf-8"?>
<!-- Generator: Adobe Illustrator 21.1.0, SVG Export Plug-In . SVG Version: 6.00 Build 0)  -->
<svg version="1.1" id="Layer_1" xmlns="http://www.w3.org/2000/svg" xmlns:xlink="http://www.w3.org/1999/xlink" x="0px" y="0px"
	 viewBox="0 0 199.6 52.8" style="enable-background:new 0 0 199.6 52.8;" xml:space="preserve">
<style type="text/css">
	.st0{fill-rule:evenodd;clip-rule:evenodd;fill:#006095;}
	.st1{fill-rule:evenodd;clip-rule:evenodd;fill:#69AC40;}
	.st2{fill-rule:evenodd;clip-rule:evenodd;fill:#008BC0;}
	.st3{fill-rule:evenodd;clip-rule:evenodd;}
</style>
<g>
	<g>
		<path class="st0" d="M36.6,10.5c-0.7-0.5-1.7-1-2.5-0.2c-0.5,0.5-2.1,2.5-2.4,3.1c-0.5,0.8,0.1,1.7,0.6,2.1
			c2.5,2.1,10,7.4,19,18.5c0,0,0,0,0,0c0.4,0.5,1.6,0.9,1.9-0.3c0.1-0.4,0.6-2.8,0.8-4.2c0.3-1.9-0.5-2.9-0.9-3.4
			C52.3,25.3,43.3,15.7,36.6,10.5"/>
		<path class="st1" d="M28.3,0.3c-2.4,1.2-7.5,4.5-7.8,4.7c-1.2,0.7-2.2,1.8-0.3,2.9c3.4,1.9,7.1,4.4,8.1,4.8
			c1.8,0.9,2.3,0.1,3.6-1.6c1.5-1.9,2.9-3.5,4.3-5.4c0.4-0.5,1.7-1.8,0.5-2.7c-0.6-0.4-4.2-2.3-5.4-2.7C30.6,0.1,29.5-0.3,28.3,0.3"
			/>
		<path class="st0" d="M14.1,46.7c-3.2-1.9-2.8-5.3-1.8-6.6c0.9-1.2,15.7-21.4,16-21.9c1.1-1.6,2.3-1.2,3-0.7c1.8,1.2,7,5.7,8.6,7.5
			c1.1,1.2,0,2.8-0.5,4.3c-0.9,2.7-8.6,16.5-12,21.7c0,0-1.7,3-4.3,1.3C22.1,51.7,14.4,46.9,14.1,46.7"/>
		<path class="st2" d="M6.7,5.7c-1.9,1-4.6,2.5-6,3.7c-1.4,0.9-0.5,2.1,1,2.7c5.2,2.2,16.4,8.6,18.7,10c0.9,0.6,2,1.1,3.2-0.1
			c0.5-0.5,3.1-3.8,3.7-4.6c1-1.3,0.4-2.4-0.2-2.9c-4.7-3.4-12.2-7.3-17-9.2C9.2,5,8,5,6.7,5.7"/>
	</g>
	<path class="st3" d="M89.6,37.1c0,0.5-0.3,0.7-1,0.7h-3.8c-1,0-1.5-0.4-1.8-1.3l-2-5.6H68.7l-2,5.6c-0.3,0.9-0.8,1.3-1.8,1.3h-3.3
		c-0.7,0-1-0.2-1-0.7c0-0.2,0.1-0.4,0.2-0.6L71.2,9.3C71.5,8.5,72,8,72.9,8h4.4c0.8,0,1.3,0.5,1.7,1.4l10.4,27.2
		C89.5,36.7,89.6,37,89.6,37.1z M75,13.7h-0.2l-4.5,12.5h9.1L75,13.7z M95.6,27.5v-9.8c0-0.9-0.4-1.3-1.3-1.3h-3.1
		c-0.8,0-1.2,0.4-1.2,1.3v11.3c0,4.8,1.7,9.2,7.9,9.2c3,0,5.2-1,6.9-3.6h0.2v1.8c0,0.9,0.4,1.3,1.2,1.3h3c0.8,0,1.2-0.4,1.2-1.3
		V17.8c0-0.9-0.4-1.3-1.2-1.3h-3.1c-0.8,0-1.2,0.4-1.2,1.3v8.3c0,4.5-1.9,7.5-5.3,7.5C96.6,33.6,95.6,31.4,95.6,27.5 M126.9,18.3
		c0.2-0.7,0-1-0.8-1.3c-1.6-0.7-3.6-1-5.2-1c-4.6,0-8.2,2-8.2,6.3c0,3.3,1.9,5.1,5,6.4c3.4,1.3,4.8,2,4.8,3.4c0,1.7-1.7,2.2-3.4,2.2
		c-2.9,0-4.2-1.4-5-1.4c-0.6,0-0.9,0.3-1,1l-0.2,2c-0.1,0.6,0.1,1.1,0.8,1.5c1.4,0.7,3.6,1.1,5.6,1.1c4.4,0,8.8-1.8,8.8-6.7
		c0-3-1.4-4.9-5-6.4c-2.9-1.2-4.8-1.9-4.8-3.4c0-1.1,1.2-1.8,2.9-1.8c2.4,0,3.6,1,4.4,1c0.5,0,0.8-0.2,0.9-0.8L126.9,18.3
		 M151.4,36.3c0,7.6-4.1,11-12,11c-2.2,0-4.8-0.5-6.5-1.2c-1.2-0.5-1.4-0.8-1.2-1.8l0.3-2c0.1-0.6,0.4-0.9,1-0.9
		c1,0,2.6,1.5,6.5,1.5c4.3,0,6.5-2.2,6.5-6.7v-1.5h-0.1c-1.5,2.4-3.9,3.2-6.7,3.2c-6.2,0-9.4-5-9.4-11c0-5.4,3.1-10.9,9.3-10.9
		c3,0,5.3,1,6.9,3.1h0.2v-1.2c0-0.9,0.4-1.3,1.3-1.3h2.9c0.8,0,1.2,0.4,1.2,1.3V36.3z M145.8,27.1c0-4.1-2.2-6.7-5.3-6.7
		c-3.4,0-5.1,3.2-5.1,6.6c0,3.5,1.7,6.6,5,6.6C143.9,33.5,145.8,30.7,145.8,27.1z M155.3,37.8h3.1c0.9,0,1.3-0.4,1.3-1.3v-8.3
		c0-4.1,1.4-7.4,4.9-7.4c1.1,0,1.7,0.2,2.2,0.2c0.7,0,1.1-0.3,1.1-1.1v-2.5c0-0.8-0.3-1.1-0.7-1.2c-0.4-0.1-1.1-0.2-1.9-0.2
		c-2.5,0-4.1,1.1-5.5,3.5h-0.2v-1.6c0-0.9-0.4-1.3-1.3-1.3h-3c-0.8,0-1.2,0.4-1.2,1.3v18.7C154.1,37.4,154.5,37.8,155.3,37.8
		 M172.4,5.8c1.8,0,3.2,1.5,3.2,3.2c0,1.8-1.4,3.2-3.2,3.2c-1.7,0-3.2-1.5-3.2-3.2C169.2,7.3,170.6,5.8,172.4,5.8z M169.6,17.8
		c0-0.9,0.4-1.3,1.2-1.3h3.1c0.8,0,1.2,0.4,1.2,1.3v18.7c0,0.9-0.4,1.3-1.2,1.3h-3.1c-0.8,0-1.2-0.4-1.2-1.3V17.8z M194.1,35
		c-1.5,2.3-3.9,3.4-6.8,3.4c-6.4,0-9.5-5.4-9.5-11.5c0-5.4,3.2-10.9,9.2-10.9c3.1,0,5.3,1,6.9,3.1h0.1v-12c0-0.9,0.4-1.4,1.3-1.4
		h3.1c0.8,0,1.2,0.5,1.2,1.4v29.4c0,0.9-0.4,1.3-1.2,1.3h-2.9c-0.9,0-1.3-0.4-1.3-1.3V35H194.1z M194,27.2c0-4.1-2.1-6.8-5.3-6.8
		c-3.4,0-5.1,3.2-5.1,6.6c0,3.5,1.7,6.8,5,6.8C192,33.8,194,30.9,194,27.2z"/>
</g>
</svg>
