<svg width="90" height="21" viewBox="0 0 90 21" fill="none" xmlns="http://www.w3.org/2000/svg">
<path d="M19.2344 19.6019H16.1701C16.1701 19.6019 15.8269 19.6271 15.6798 19.2494L13.9882 14.9939H5.43253L3.76551 19.2494C3.76551 19.2494 3.61842 19.6019 3.27521 19.6019H0.259873C-0.107851 19.6019 0.0147251 19.3249 0.03924 19.2494C0.0637549 19.199 7.83499 0.338818 7.83499 0.338818C7.95757 0.0114715 8.15368 0.0114746 8.17819 0.0114746H11.2671C11.4632 0.0114746 11.5858 0.288457 11.5858 0.338818C11.5858 0.363998 19.4306 19.2494 19.4306 19.2494C19.4306 19.2494 19.6267 19.6019 19.2344 19.6019ZM6.51118 12.2492H12.9341L9.72265 3.93962L6.51118 12.2492Z" fill="#263A68"/>
<path d="M79.0503 17.7388C79.0013 17.6884 77.9962 16.2783 77.9962 16.2783C77.8246 16.0265 77.5304 16.0768 77.4323 16.102C77.3588 16.1272 76.3046 16.4797 76.3046 16.4797C75.4466 16.7819 74.4415 17.1344 72.9951 17.1344C70.5926 17.1344 69.7346 15.5481 69.7346 13.9113V13.3322H79.2709C79.6141 13.3322 79.5896 12.9293 79.5896 13.0048V9.90763C79.5896 6.18092 77.0156 3.6377 72.9951 3.6377C68.9256 3.6377 66.3516 6.13056 66.3516 9.90763V13.8106C66.3516 17.3862 68.754 20.0805 72.9951 20.0805C73.9267 20.0805 75.4956 19.8791 76.844 19.5014C78.3884 19.0481 78.9277 18.6201 79.0993 18.3179C79.2219 18.0409 79.0748 17.7891 79.0503 17.7388ZM69.7346 9.80691C69.7346 7.81765 70.7152 6.60899 72.9951 6.60899C75.2505 6.60899 76.2066 7.81765 76.2066 9.90763V10.3861H69.7346V9.80691Z" fill="#263A68"/>
<path d="M46.4954 5.57662L45.098 7.18818C45.098 7.18818 44.8774 7.46516 44.5832 7.36444L44.289 7.26372C43.431 6.98673 42.2543 6.55867 41.0285 6.55867C39.6067 6.55867 38.5525 7.18817 38.5525 8.22057C38.5525 9.27815 39.7047 9.70622 40.4647 10.0084L43.3574 11.0408C45.4902 11.7962 46.7405 13.03 46.7405 15.3215C46.7405 17.9654 44.7303 20.0806 40.955 20.0806C39.0183 20.0806 36.812 19.5014 35.6843 18.9726C35.6843 18.9726 35.5372 18.8971 35.3165 18.7964C34.9488 18.6201 35.1204 18.3935 35.2185 18.2928C35.292 18.192 36.7384 16.505 36.7384 16.505C36.91 16.3035 37.1061 16.3539 37.1061 16.3539C37.8416 16.6057 39.4105 17.1345 40.7834 17.1345C42.4259 17.1345 43.4555 16.379 43.4555 15.3215C43.4555 14.3646 42.3033 13.7603 41.2246 13.3574L38.528 12.3502C37.1061 11.8214 35.2675 10.8897 35.2675 8.17022C35.2675 5.32482 37.6209 3.61255 40.955 3.61255C42.9897 3.61255 44.7058 4.11616 45.858 4.64495C45.858 4.64495 46.1276 4.77085 46.2257 4.82121C46.3728 4.94711 46.8631 5.17373 46.4954 5.57662Z" fill="#263A68"/>
<path d="M64.1219 0.364305C64.1219 -0.0385823 63.7787 0.0117802 63.7787 0.0117802H61.1065C61.1065 0.0117802 60.7878 -0.0134003 60.7878 0.389487V13.4581L52.3302 0.238403C52.1586 -0.0385823 51.8399 -0.0637673 51.6193 0.162857C50.8593 0.993812 49.1923 2.78163 49.1678 2.83199C49.1187 2.88235 48.8246 3.18451 48.8246 3.56222V19.2497C48.8246 19.2497 48.8 19.6022 49.1678 19.6022H51.8154C52.1831 19.6022 52.1341 19.2497 52.1341 19.2497V5.77811L60.7388 19.2497C61.0085 19.6274 61.3517 19.6022 61.3517 19.6022H63.7296C64.0974 19.6022 64.0728 19.2497 64.0728 19.2497V0.364305H64.1219Z" fill="#263A68"/>
<path d="M33.3299 4.26718V17.4366C33.3299 18.2675 32.766 18.9726 31.859 19.2496C30.241 19.7532 28.5494 20.0553 26.7353 20.0553C22.3226 20.0553 20.0918 17.9654 20.0918 13.9113V4.26718C20.0918 3.91465 20.435 3.91466 20.435 3.91466H23.1316C23.1316 3.91466 23.4749 3.91465 23.4749 4.26718V14.0372C23.4749 16.0265 24.5535 17.1092 26.7353 17.1092C27.863 17.1092 28.8927 16.933 29.9468 16.6812V4.26718C29.9468 3.88947 30.29 3.91466 30.29 3.91466H32.9866C33.3299 3.91466 33.3299 4.26718 33.3299 4.26718Z" fill="#263A68"/>
<path d="M84.1008 0.1629C84.2724 0.011817 84.395 0.0118232 84.444 0.0118232H84.7137C84.7627 0.0118232 85.0814 -0.0133588 85.0814 0.364348V3.9148H89.3225C89.4451 3.9148 89.6657 3.9148 89.6657 4.2925V6.58392C89.6657 6.58392 89.6902 6.98681 89.3225 6.98681H85.0814V15.246C85.0814 16.4799 85.6943 17.0842 86.7484 17.0842C87.2142 17.0842 87.729 17.0338 87.8026 17.0086C87.8761 17.0086 88.0722 16.9835 88.2438 17.1849C88.2438 17.1849 89.8128 18.8468 89.8618 18.9224C90.0334 19.0986 90.0579 19.2749 89.8618 19.426C89.8618 19.426 89.0038 20.0555 86.6258 20.1058C83.8311 20.1562 81.6738 18.4187 81.6738 15.1956V2.70613C81.6738 2.32842 81.919 2.12698 81.9925 2.05144C82.0416 1.97589 84.1008 0.1629 84.1008 0.1629Z" fill="#263A68"/>
</svg>
