<svg width="156" height="48" viewBox="0 0 156 48" fill="none" xmlns="http://www.w3.org/2000/svg">
<path fill-rule="evenodd" clip-rule="evenodd" d="M50.7838 28.2584L50.6638 28.1624L50.7514 28.0407L52.0876 26.1771L49.7946 26.657L49.6434 26.6886L49.5989 26.5458L48.9231 24.3755L47.8811 26.4065L47.8126 26.5388L47.6686 26.4838L45.4897 25.6421L46.4861 27.693L46.5509 27.83L46.4165 27.9026L44.3757 29.0217L46.6578 29.5496L46.809 29.5847L46.785 29.7334L46.5449 31.1967L46.4177 31.9693L48.3913 30.485L50.0791 32.269L50.0911 31.2072L50.1056 30.0027V29.8528L50.2604 29.8435L52.6026 29.6901L50.7838 28.2584Z" fill="#C71053"/>
<path fill-rule="evenodd" clip-rule="evenodd" d="M48.2397 31.0094L48.2637 31.0082C48.3189 31.0082 48.3778 31.0129 48.4342 31.0153" fill="#005A8F"/>
<path fill-rule="evenodd" clip-rule="evenodd" d="M50.2918 39.2596C49.9953 40.024 49.3518 40.6468 48.4611 40.6468C47.4047 40.6468 46.6604 39.7372 46.3002 38.8604C45.9197 37.9532 45.7864 36.8704 45.7864 35.8835C45.7864 35.1823 45.8692 34.3699 46.1658 33.7155C46.4971 33.0155 47.0913 32.3623 47.9497 32.3623C49.0217 32.3623 49.7972 33.3023 50.1586 34.1779C50.5223 35.1016 50.6219 36.1692 50.6219 37.1572C50.6219 37.8431 50.5559 38.6228 50.2918 39.2596C50.3122 39.2104 50.3122 39.2104 50.2918 39.2596ZM52.5199 32.3775C51.9317 31.8531 51.1994 31.5078 50.4227 31.2924L50.4059 32.6807L50.4023 33.0928L50.1166 32.7884L48.4347 31.0149C48.377 31.0126 48.3182 31.0079 48.263 31.0079L48.2378 31.0091L46.287 32.477L45.9509 32.7299L46.0181 32.326L46.1886 31.2888C43.82 31.9514 42.1573 33.7811 42.1573 36.4723C42.1573 38.0012 42.7012 39.5452 43.8908 40.5976C45.0289 41.5996 46.7444 42 48.263 42C49.7636 42 51.4971 41.5224 52.6184 40.518C53.7228 39.5312 54.251 38.0164 54.251 36.5847C54.251 35.0418 53.7264 33.451 52.5247 32.3845L52.5199 32.3775ZM42.6207 21.4908C28.8032 31.1051 15.7203 23.8437 45.5427 6C25.0013 22.1136 32.0445 24.614 42.6207 21.4908ZM44.7144 11.0149C58.5319 1.40064 71.6172 8.66199 41.7924 26.5034C62.3351 10.391 55.2906 7.89055 44.7144 11.0149ZM11.5931 41.9391C11.3902 41.8431 11.1489 41.8595 10.9268 41.8806L8.48861 41.9977C6.37096 41.9977 4.25451 41.5704 2.60145 40.2452C0.866748 38.8639 0 36.8387 0 34.7C0 33.0061 0.625451 31.2924 1.9964 30.1814C3.44899 29.0342 5.20169 28.6842 7.01682 28.6842C7.60146 28.6842 8.14528 28.7428 8.62907 28.7814C9.11286 28.8399 9.53663 28.8996 9.87997 28.8996C10.2029 28.8996 10.5234 28.8013 10.6651 28.5086L11.5931 32.1879L11.431 32.2464C10.6855 30.5514 8.85116 29.6968 7.01682 29.6968C5.68549 29.6968 4.61706 29.9895 3.70949 30.9997C2.84274 31.9725 2.41897 33.2789 2.41897 34.5619C2.41897 37.9485 4.79833 40.9851 8.48861 40.9851C10.6255 40.9851 12.0781 39.7594 12.9436 37.9485L13.1453 38.0269L11.5931 41.9403V41.9391Z" fill="#005A8F"/>
<path fill-rule="evenodd" clip-rule="evenodd" d="M15.9483 39.6568C15.9483 40.5347 15.9663 41.4572 17.0215 41.6V41.744H13.0599V41.5988C14.1164 41.4747 14.1332 40.6459 14.1332 39.7691V33.3495C14.1332 32.4738 14.1164 31.5491 13.0611 31.4062V31.2634H17.0215V31.4051C15.9651 31.5643 15.9483 32.3767 15.9483 33.2523V39.6568ZM23.0251 39.6743C23.0251 40.6436 23.0407 41.5684 24.0972 41.6V41.744H20.1368V41.6C21.1932 41.5684 21.21 40.7255 21.21 39.768V32.0911C19.1968 32.0911 17.9423 32.7115 17.3156 34.2567L17.1668 34.2099L17.9759 31.0562C18.1896 31.3278 18.6362 31.2634 18.9483 31.2634H25.2857C25.599 31.2634 26.0456 31.3278 26.258 31.0562L27.066 34.2087L26.9183 34.2555C26.2917 32.7115 25.036 32.0899 23.0251 32.0899V39.6743ZM30.1344 39.6568C30.1344 40.5347 30.15 41.4572 31.2076 41.6V41.744H27.246V41.5988C28.3025 41.4747 28.3193 40.6459 28.3193 39.7691V33.3495C28.3193 32.4738 28.3037 31.5491 27.246 31.4062V31.2634H31.2076V31.4051C30.1512 31.5643 30.1344 32.3767 30.1344 33.2523V39.6568ZM36.0216 35.7691C37.1452 35.5315 38.8607 34.8771 38.8607 33.5731C38.8607 32.6471 38.036 32.3135 37.1932 32.3135C36.072 32.3135 36.0216 32.7279 36.0216 33.6515V35.7703V35.7691ZM32.6386 33.2523C32.6386 32.1379 32.4405 31.645 31.7659 31.6603V31.2623H38.6794C39.3553 31.2623 40.461 31.2623 41.0732 31.4542C41.8307 31.6767 42.3577 32.2503 42.3577 33.0463C42.3577 35.5163 37.9519 36.4715 36.0216 36.9339V39.7527C36.0216 40.8683 36.3529 41.3623 37.03 41.346V41.744H31.7659V41.346C32.4405 41.3623 32.6386 40.8683 32.6386 39.7539V33.2523ZM66.3794 33.0791C66.4274 32.8566 66.4946 32.5991 66.4946 32.3615C66.4946 31.9482 66.2797 31.7246 65.868 31.6614V31.2611H68.9364V31.6614C68.0132 31.8839 67.9616 32.5371 67.8151 33.2863L66.4622 39.5959C66.395 39.9119 66.2797 40.3896 66.2797 40.708C66.2797 41.106 66.4118 41.2816 66.8079 41.3448V41.7428H61.4934V41.3448C61.8103 41.3132 61.9892 41.1551 61.9892 40.8192C61.9892 40.612 61.9076 40.2795 61.874 40.0548L60.9676 35.0375L60.06 40.1039C60.0264 40.3111 59.9448 40.6448 59.9448 40.866C59.9448 41.1868 60.06 41.2664 60.3566 41.346V41.744H55.4406V41.346C55.7359 41.298 55.952 41.1376 55.952 40.8192C55.952 40.6295 55.8199 40.0079 55.7863 39.8019L54.6459 33.7007C54.4982 32.9011 54.3817 31.7563 53.3277 31.6614V31.2611H58.7731V31.6614C58.1285 31.7083 57.8319 32.0419 57.8319 32.6799C57.8319 33.0615 57.964 33.6515 58.03 34.0495L59.036 40.0712L60.2905 33.0311C60.3241 32.8239 60.3734 32.6003 60.3734 32.3767C60.3734 31.9155 60.1092 31.6614 59.6459 31.6614V31.2611H64.4658V31.6614C63.9376 31.7551 63.7719 32.0115 63.7719 32.5055C63.7719 32.7431 63.8355 33.1259 63.8704 33.3647L64.9928 40.0712L66.3794 33.0791ZM69.4418 41.744V41.3448C70.1189 41.3612 70.3482 40.8672 70.3482 39.7527V33.2523C70.3482 32.1402 70.1201 31.645 69.4418 31.6614V31.2623H76.9328C77.347 31.2786 78.0048 31.3266 78.3182 31.0082L79.1609 34.6711L78.7984 34.7823C78.3182 33.2394 76.8992 32.3135 75.2497 32.3135C73.6339 32.3135 73.7323 32.9023 73.7323 34.1783V34.6863H74.2605C75.3482 34.6863 76.437 34.7975 76.4214 33.3986L76.7515 33.3495L77.479 37.3951L77.1477 37.4267C76.9744 36.9791 76.698 36.5762 76.3398 36.2491C75.6951 35.6755 75.0036 35.7375 74.1777 35.7375H73.7335V39.1955C73.7335 40.2783 74.0288 40.6927 75.3326 40.6927C77.4454 40.6927 78.7984 39.4659 79.6723 37.7299L80.0193 37.8563L78.6147 41.998C78.5571 41.9326 78.4866 41.8792 78.4074 41.841C78.3282 41.8028 78.2419 41.7806 78.1537 41.7756C77.9904 41.744 77.8068 41.744 77.6255 41.744H69.4418Z" fill="#005A8F"/>
<path fill-rule="evenodd" clip-rule="evenodd" d="M85.467 32.3156C85.138 32.3156 84.6086 32.3776 84.3625 32.6164C84.1801 32.8084 84.2125 33.2076 84.2125 33.4441V35.8028C85.3361 35.5336 86.8523 34.8956 86.8523 33.5412C86.8523 32.7288 86.2917 32.3156 85.467 32.3156C86.2917 32.3156 85.467 32.3156 85.467 32.3156ZM80.8475 33.2556C80.8475 32.14 80.6158 31.6448 79.9399 31.6624V31.262H87.3649C88.042 31.2796 88.7671 31.2796 89.3949 31.5196C89.9712 31.7736 90.3517 32.2336 90.3517 32.8728C90.3517 34.1944 89.0972 35.0712 88.0096 35.612C89.2281 36.744 90.1873 38.3372 90.7635 40.0405C90.9472 40.5977 91.2749 41.3469 92 41.3469V41.7449H86.4562V41.3469C86.8367 41.3317 87.1344 41.2509 87.1344 40.8201C87.1344 39.8485 85.485 37.5553 84.7911 36.7745L84.2125 36.9653V39.7548C84.2125 40.8693 84.4442 41.3621 85.12 41.3469V41.7449H79.9411V41.3469C80.617 41.3621 80.8487 40.8693 80.8487 39.7548V33.2556H80.8475Z" fill="#005A8F"/>
<path fill-rule="evenodd" clip-rule="evenodd" d="M108 48H156V0H108V48Z" fill="#EE2A24"/>
<path fill-rule="evenodd" clip-rule="evenodd" d="M113.886 24.7508H114.143C114.827 24.7242 115.027 24.7422 115.016 22.7965V20.4634C115.04 18.7062 114.753 18.648 114.101 18.6111H113.886V24.7508ZM111.323 29.5954V29.3905H112.031V18.6111H111.336V18.4071H114.322C116.033 18.3805 116.855 20.1402 116.855 21.6951C116.855 23.2834 116.188 24.5922 114.785 24.9282L113.886 25.0328V29.3905H114.515V29.5954H111.324H111.323ZM118.665 28.4648C118.665 29.1814 118.734 29.55 119.116 29.55C119.526 29.55 119.622 29.1814 119.622 28.4648V22.3105C119.622 21.684 119.467 21.2622 119.116 21.2622C118.764 21.2622 118.665 21.684 118.665 22.3105V28.4648ZM120.719 22.062C121.16 22.7948 121.44 24.0094 121.44 25.2985C121.44 26.6425 121.271 27.5074 120.846 28.3671C120.42 29.226 119.727 29.7077 119.128 29.7077C118.531 29.7077 117.838 29.2534 117.412 28.3928C116.986 27.5322 116.792 26.6425 116.792 25.2985C116.792 24.0094 117.046 22.8471 117.488 22.1125C117.912 21.396 118.562 21.0257 119.128 21.0257C119.697 21.0257 120.293 21.3445 120.719 22.0611V22.062ZM145.247 28.4648C145.247 29.1814 145.317 29.55 145.699 29.55C146.109 29.55 146.205 29.1814 146.205 28.4648V22.3105C146.205 21.684 146.049 21.2622 145.699 21.2622C145.346 21.2622 145.247 21.684 145.247 22.3105V28.4648ZM147.301 22.062C147.742 22.7948 148.021 24.0094 148.021 25.2985C148.021 26.6425 147.854 27.5074 147.427 28.3671C147.003 29.226 146.309 29.7077 145.71 29.7077C145.111 29.7077 144.42 29.2534 143.995 28.3928C143.567 27.5322 143.373 26.6425 143.373 25.2985C143.373 24.0094 143.629 22.8471 144.07 22.1125C144.496 21.396 145.143 21.0257 145.71 21.0257C146.279 21.0257 146.876 21.3445 147.301 22.0611V22.062ZM142.967 26.4668C142.967 26.4668 142.992 27.0514 142.67 28.0294C142.348 29.01 141.396 29.5122 140.983 29.5122C140.505 29.5122 140.191 29.1805 140.191 28.464V22.3122C140.191 21.6857 140.349 21.1585 140.836 21.1585C141.187 21.1585 141.641 21.4362 141.974 22.1828C142.255 22.812 142.748 24.8888 142.748 24.8888L142.851 24.8922L142.861 21.0462C142.81 21.0548 142.804 21.0514 142.77 21.0488C142.263 22.3131 141.674 21.0068 140.759 21.0274C140.024 21.0445 139.517 21.396 139.091 22.1125C138.649 22.8471 138.337 24.0085 138.337 25.2994C138.337 26.6434 138.532 27.5708 138.957 28.4322C139.383 29.292 140.194 29.7205 140.836 29.6948C141.665 29.6622 142.347 29.136 142.733 28.3611C143.013 27.798 143.093 27.2022 143.132 26.4565L142.967 26.4677V26.4668ZM121.3 21.1602H124.069V21.3685L123.458 21.3702L124.347 26.5637L124.853 23.4685L124.532 21.3685H124.227V21.1602H126.847V21.3685H126.27L127.175 26.6057L127.736 23.1171C127.955 21.6514 127.648 21.4902 127.417 21.4328L127.172 21.3677V21.1602H128.857V21.3685C128.425 21.3685 128.186 21.8408 127.93 23.3485L126.921 29.5945H125.912L125.015 24.1002L124.061 29.5945H123.152L121.753 21.3685H121.301V21.1602H121.3ZM131.372 25.5317V22.1494C131.372 21.5228 131.315 21.1705 130.919 21.1705C130.575 21.1705 130.495 21.5811 130.495 22.1357V25.53H131.372V25.5317ZM130.495 25.7288V26.7145C130.499 28.5951 130.391 29.5911 131.393 29.5474C132.102 29.5174 133.299 28.1151 133.181 26.4874H133.392C133.396 27.8888 132.822 28.9722 132.129 29.3828C131.344 29.8491 130.595 29.8542 129.845 29.2234C129.101 28.5977 128.534 27.4491 128.534 25.4057C128.534 22.5394 129.754 20.9871 130.882 20.9871C132.177 20.9871 133.305 22.5557 133.29 25.728H130.495V25.7288ZM134.059 21.9402C133.924 21.882 133.581 21.9017 133.581 21.9017V21.7045C134.351 21.7045 135.308 21.4277 135.89 20.9057V22.0662C135.89 22.0662 136.419 21.0548 136.947 21.0102C137.418 20.9708 138.223 21.2057 138.162 22.8531C138.118 24.0874 137.657 24.3865 137.11 24.3291C136.62 24.276 136.222 23.6305 136.454 22.6277C136.496 22.4477 136.711 21.9531 137.147 21.9402C137.387 21.9325 137.743 22.1974 137.743 22.1974C137.743 22.1974 137.709 21.2837 137.199 21.234C136.775 21.1928 136.611 21.342 136.214 21.936C135.894 22.4142 135.882 23.0331 135.882 23.0331L135.887 29.3794H136.457V29.5954H133.643V29.3794H134.183V22.2137C134.183 22.2137 134.196 21.9994 134.059 21.9402ZM148.918 21.9402C148.781 21.882 148.44 21.9017 148.44 21.9017V21.7045C149.209 21.7045 150.165 21.4277 150.749 20.9057V22.0662C150.749 22.0662 151.277 21.0548 151.806 21.0102C152.276 20.9708 153.08 21.2057 153.022 22.8531C152.977 24.0874 152.513 24.3865 151.97 24.3291C151.478 24.276 151.081 23.6305 151.312 22.6277C151.354 22.4477 151.567 21.9531 152.005 21.9402C152.245 21.9325 152.6 22.1974 152.6 22.1974C152.6 22.1974 152.568 21.2837 152.056 21.234C151.635 21.1928 151.47 21.342 151.073 21.936C150.752 22.4142 150.74 23.0331 150.74 23.0331L150.745 29.3794H151.315V29.5954H148.5V29.3794H149.042V22.2137C149.042 22.2137 149.053 21.9994 148.918 21.9402Z" fill="white"/>
<path fill-rule="evenodd" clip-rule="evenodd" d="M134.186 18.4058H139.545V17.9772H134.186V18.4058ZM139.672 17.1612L139.805 16.7541L134.707 15.0869L134.576 15.4949L139.672 17.1612ZM140.177 16.0187L140.428 15.6715L136.092 12.5001L135.841 12.8472L140.177 16.0187ZM141.007 15.0878L141.353 14.8358L138.202 10.4721L137.858 10.7249L141.007 15.0878ZM142.083 14.4612L142.487 14.3292L140.833 9.19923L140.427 9.33209L142.083 14.4612ZM143.298 14.1998H143.723V8.8058H143.298V14.1998ZM144.534 14.3292L144.938 14.4612L146.594 9.33123L146.189 9.19923L144.534 14.3292ZM145.669 14.8367L146.013 15.0878L149.164 10.7249L148.82 10.4729L145.669 14.8367ZM146.594 15.6715L146.844 16.0178L151.18 12.8481L150.929 12.5018L146.594 15.6715ZM147.216 16.7541L147.348 17.1612L152.444 15.4949L152.314 15.0878L147.216 16.7541ZM147.476 18.4058H152.835V17.9772H147.476V18.4058ZM112.554 37.2672L112.407 35.2744H112.36L112.185 37.2672H112.554ZM111.864 34.3984H112.929L113.471 39.1932H112.754L112.621 37.8929H112.12L111.966 39.1932H111.323L111.864 34.3984ZM116.133 34.3984V38.4792C116.133 39.1049 115.644 39.2867 115.201 39.2867C114.767 39.2867 114.279 39.1049 114.279 38.4792V34.3992H114.989V38.4184C114.989 38.6601 115.062 38.7149 115.208 38.7149C115.349 38.7149 115.423 38.6601 115.423 38.4184V34.3984H116.133ZM121.642 34.3984V35.0241H121.027V39.1924H120.317V35.0232H119.696V34.3984H121.642ZM123.2 36.3852H123.335C123.581 36.3852 123.634 36.2498 123.634 36.0749V35.2058C123.634 35.0249 123.529 34.9709 123.368 34.9709H123.199V36.3852H123.2ZM122.492 39.1932V34.3984H123.428C123.996 34.3984 124.344 34.6007 124.344 35.2195V35.9001C124.344 36.2575 124.244 36.5532 123.642 36.6209V36.6338C123.956 36.6741 124.291 36.7812 124.318 37.2192C124.359 37.8595 124.318 38.5324 124.432 39.1932H123.722C123.602 38.6412 123.634 37.9212 123.634 37.3615C123.634 37.0727 123.529 36.9587 123.2 36.9707V39.1932H122.492ZM126.384 37.2672L126.237 35.2744H126.189L126.015 37.2672H126.384ZM125.694 34.3984H126.759L127.301 39.1932H126.584L126.451 37.8929H125.949L125.794 39.1932H125.154L125.693 34.3984H125.694ZM128.128 39.1924V34.3984H128.838V38.5667H129.74V39.1924H128.128ZM130.496 39.1924H131.204V34.3984H130.496V39.1924ZM133.265 37.2672L133.119 35.2744H133.072L132.897 37.2672H133.265ZM132.576 34.3984H133.64L134.182 39.1932H133.466L133.332 37.8929H132.831L132.676 39.1932H132.034L132.576 34.3984ZM117.797 35.1724C117.797 34.9307 117.87 34.8749 118.016 34.8749C118.158 34.8749 118.231 34.9307 118.231 35.1724V35.6918H118.941V35.1124C118.941 34.4867 118.452 34.3041 118.011 34.3041C117.576 34.3041 117.087 34.4867 117.087 35.1124V35.7981C117.087 36.5798 118.231 37.2381 118.231 37.9127V38.4184C118.231 38.6618 118.158 38.7141 118.017 38.7141C117.87 38.7141 117.797 38.6618 117.797 38.4184V37.8921H117.087V38.4792C117.087 39.1049 117.576 39.2867 118.011 39.2867C118.452 39.2867 118.941 39.1049 118.941 38.4792V37.6307C118.941 37.1464 117.797 36.1101 117.797 35.7638V35.1724Z" fill="white"/>
</svg>