<svg width="258" height="66" viewBox="0 0 258 66" fill="none" xmlns="http://www.w3.org/2000/svg">
<g clip-path="url(#clip0_8439_20660)">
<path d="M104.8 19.893H115.645V15.7753H104.8V10.9503H116.246V6.69922H100.015V29.7032H116.846V25.3854H104.8V19.893Z" fill="#0E1B62"/>
<path d="M132.923 14.7544C132.422 14.1204 131.768 13.6065 130.988 13.2261C130.207 12.839 129.259 12.6455 128.171 12.6455C126.917 12.6455 125.809 12.9725 124.888 13.6132C124.287 14.0336 123.8 14.5008 123.426 15.008V13.1127H119.042V29.71H123.627V20.6138C123.627 20.1133 123.7 19.6061 123.847 19.1122C123.994 18.6251 124.207 18.1913 124.488 17.8176C124.761 17.4505 125.122 17.1502 125.549 16.9166C125.969 16.6831 126.483 16.5696 127.077 16.5696C127.671 16.5696 128.125 16.6897 128.465 16.9166C128.812 17.1569 129.092 17.4639 129.293 17.8309C129.499 18.2113 129.633 18.6451 129.693 19.1122C129.76 19.6128 129.793 20.0933 129.793 20.5404V29.7033H134.378V19.4059C134.378 18.565 134.264 17.7308 134.031 16.9233C133.797 16.1091 133.424 15.3817 132.93 14.7544H132.923Z" fill="#0E1B62"/>
<path d="M139.016 27.501C139.717 28.2951 140.584 28.9358 141.579 29.4096C142.58 29.8835 143.728 30.1237 144.989 30.1237C146.164 30.1237 147.278 29.8634 148.306 29.3562C149.087 28.9692 149.747 28.4486 150.274 27.7946V29.6566H154.659V6.69263H150.074V14.701C149.961 14.5742 149.834 14.454 149.694 14.3272C149.367 14.0203 148.973 13.74 148.519 13.4864C148.065 13.2328 147.538 13.0125 146.938 12.8457C146.337 12.6722 145.643 12.5854 144.889 12.5854C143.714 12.5854 142.62 12.8123 141.632 13.2595C140.644 13.7066 139.784 14.3339 139.069 15.1147C138.355 15.8956 137.795 16.8232 137.408 17.8776C137.021 18.932 136.82 20.0732 136.82 21.2812C136.82 22.4891 137.014 23.637 137.388 24.6981C137.768 25.7658 138.315 26.7068 139.016 27.4943V27.501ZM141.479 21.2878C141.479 20.7006 141.572 20.1066 141.752 19.5193C141.932 18.9454 142.199 18.4182 142.553 17.9577C142.907 17.5039 143.354 17.1302 143.894 16.8566C144.428 16.5763 145.069 16.4428 145.796 16.4428C146.477 16.4428 147.091 16.5896 147.625 16.8766C148.166 17.1702 148.639 17.5506 149.026 18.0111C149.414 18.4716 149.707 18.9988 149.907 19.5861C150.108 20.18 150.208 20.774 150.208 21.3612C150.208 21.9485 150.108 22.5358 149.907 23.1164C149.707 23.6903 149.414 24.2176 149.026 24.678C148.639 25.1385 148.172 25.5122 147.632 25.7925C147.098 26.0728 146.477 26.213 145.796 26.213C145.069 26.213 144.435 26.0661 143.901 25.7792C143.361 25.4855 142.907 25.1118 142.56 24.658C142.206 24.2042 141.939 23.6703 141.759 23.083C141.579 22.4891 141.485 21.8885 141.485 21.3012L141.479 21.2878Z" fill="#0E1B62"/>
<path d="M159.738 27.8613C160.532 28.5954 161.479 29.176 162.554 29.5697C163.628 29.9701 164.816 30.1704 166.091 30.1704C169.181 30.1704 171.57 29.0559 173.198 26.8469L173.365 26.62L170.235 24.1174L170.062 24.371C169.641 24.9716 169.107 25.4521 168.46 25.7991C167.813 26.1395 167.005 26.313 166.058 26.313C165.517 26.313 164.99 26.2196 164.489 26.0327C163.989 25.8459 163.535 25.5856 163.135 25.2652C162.741 24.9449 162.427 24.5578 162.187 24.1174C162 23.7637 161.873 23.3766 161.806 22.9628H173.919L173.946 22.7092C173.966 22.5224 173.979 22.3289 173.979 22.142V21.6081C173.979 20.1332 173.779 18.8319 173.379 17.7241C172.978 16.6162 172.411 15.6686 171.697 14.9211C170.983 14.1737 170.122 13.5998 169.141 13.2194C168.166 12.839 167.092 12.6521 165.951 12.6521C164.716 12.6521 163.548 12.8657 162.487 13.2928C161.419 13.7199 160.485 14.3205 159.704 15.088C158.923 15.8554 158.303 16.8031 157.856 17.8909C157.409 18.9787 157.182 20.2 157.182 21.5213C157.182 22.8427 157.409 24.0907 157.856 25.1518C158.303 26.2196 158.93 27.1339 159.731 27.8746L159.738 27.8613ZM161.813 19.5193C161.947 18.5983 162.36 17.8509 163.061 17.2436C163.835 16.5695 164.803 16.2292 165.924 16.2292C166.525 16.2292 167.052 16.3293 167.492 16.5228C167.926 16.7163 168.293 16.9766 168.574 17.2969C168.854 17.6173 169.067 17.9977 169.194 18.4248C169.301 18.7718 169.368 19.1389 169.388 19.5126H161.806L161.813 19.5193Z" fill="#0E1B62"/>
<path d="M182.742 19.2991C181.42 19.4259 180.206 19.6795 179.118 20.0666C178.01 20.4603 177.089 21.0343 176.382 21.775C175.654 22.5425 175.281 23.5702 175.281 24.8449C175.281 25.8326 175.494 26.6735 175.908 27.3475C176.322 28.0149 176.842 28.5621 177.463 28.9759C178.077 29.383 178.764 29.6766 179.492 29.8501C180.206 30.0236 180.913 30.1104 181.574 30.1104C182.748 30.1104 183.816 29.8701 184.744 29.3963C185.404 29.0559 185.945 28.6422 186.352 28.1617V29.71H190.67V19.6795C190.67 18.8587 190.556 18.0244 190.343 17.2036C190.123 16.3627 189.729 15.5952 189.168 14.9212C188.608 14.2405 187.834 13.6866 186.873 13.2728C185.918 12.8591 184.69 12.6455 183.242 12.6455C181.994 12.6455 180.74 12.8657 179.525 13.2928C178.304 13.7266 177.209 14.3873 176.275 15.2549L176.068 15.4418L178.524 18.3314L178.744 18.1112C179.231 17.624 179.852 17.2103 180.593 16.8699C181.327 16.5296 182.108 16.3627 182.908 16.3627C183.843 16.3627 184.664 16.5896 185.331 17.0301C185.972 17.4572 186.285 18.1045 186.285 19.0055V19.1122C185.131 19.1189 183.936 19.1857 182.728 19.2991H182.742ZM186.299 22.3957V22.6693C186.299 23.8505 185.965 24.7982 185.311 25.4722C184.657 26.1462 183.676 26.4866 182.381 26.4866C182.068 26.4866 181.747 26.4532 181.44 26.3932C181.133 26.3331 180.866 26.233 180.626 26.0929C180.399 25.9594 180.212 25.7859 180.072 25.5656C179.939 25.3588 179.872 25.0918 179.872 24.7715C179.872 24.2576 180.032 23.8639 180.372 23.5769C180.74 23.2566 181.213 23.0096 181.767 22.8361C182.341 22.6559 182.982 22.5358 183.669 22.4824C184.377 22.429 185.057 22.4023 185.678 22.4023H186.285L186.299 22.3957Z" fill="#0E1B62"/>
<path d="M204.458 13.1128L200.393 24.3178L196.356 13.1128H191.351L198.058 29.7101H202.722L209.323 13.1128H204.458Z" fill="#0E1B62"/>
<path d="M224.619 15.0279C223.818 14.2737 222.85 13.6798 221.749 13.266C219.56 12.4452 216.931 12.4452 214.742 13.266C213.64 13.6798 212.673 14.2737 211.872 15.0279C211.064 15.7887 210.424 16.7096 209.957 17.7774C209.483 18.8452 209.249 20.0464 209.249 21.3478C209.249 22.6491 209.49 23.8571 209.957 24.9315C210.424 26.006 211.071 26.9403 211.872 27.7144C212.673 28.4819 213.641 29.0892 214.735 29.5296C215.829 29.9634 217.011 30.1837 218.245 30.1837C219.48 30.1837 220.661 29.9634 221.756 29.5296C222.857 29.0959 223.818 28.4886 224.619 27.7144C225.419 26.947 226.067 26.0127 226.534 24.9382C227.001 23.8571 227.241 22.6558 227.241 21.3545C227.241 20.0531 227.001 18.8519 226.534 17.7841C226.067 16.7163 225.419 15.7953 224.619 15.0345V15.0279ZM222.59 21.3478C222.59 21.9351 222.496 22.5357 222.316 23.1296C222.136 23.7169 221.869 24.2441 221.515 24.7046C221.168 25.1584 220.715 25.5388 220.174 25.8258C219.64 26.1128 218.993 26.2596 218.245 26.2596C217.498 26.2596 216.851 26.1128 216.317 25.8258C215.776 25.5321 215.322 25.1584 214.975 24.7046C214.622 24.2508 214.355 23.7169 214.174 23.1296C213.994 22.5357 213.901 21.9351 213.901 21.3478C213.901 20.7605 213.994 20.1666 214.174 19.5793C214.355 19.0053 214.622 18.4781 214.975 18.0177C215.322 17.5638 215.776 17.1901 216.317 16.9165C216.851 16.6362 217.505 16.5027 218.252 16.5027C218.999 16.5027 219.653 16.6429 220.187 16.9165C220.721 17.1968 221.175 17.5705 221.529 18.0177C221.882 18.4781 222.156 19.0053 222.33 19.5793C222.51 20.1599 222.603 20.7538 222.603 21.3478H222.59Z" fill="#0E1B62"/>
<path d="M240.415 22.2153C240.415 22.7158 240.342 23.223 240.195 23.7169C240.048 24.204 239.834 24.6378 239.554 25.0115C239.281 25.3786 238.92 25.6789 238.486 25.9125C238.053 26.146 237.539 26.2595 236.972 26.2595C236.404 26.2595 235.924 26.1394 235.583 25.9125C235.23 25.6722 234.956 25.3652 234.756 24.9982C234.549 24.6178 234.416 24.1907 234.355 23.7169C234.289 23.2097 234.262 22.7292 234.262 22.2887V13.1258H229.677V23.4232C229.677 24.2708 229.791 25.105 230.024 25.9058C230.251 26.7133 230.625 27.4474 231.125 28.0747C231.633 28.7087 232.28 29.2226 233.061 29.603C233.842 29.9901 234.789 30.1836 235.877 30.1836C237.132 30.1836 238.239 29.8566 239.16 29.2159C239.761 28.7955 240.248 28.3283 240.622 27.8211V29.7164H245.007V13.1191H240.422V22.2153H240.415Z" fill="#0E1B62"/>
<path d="M257.8 12.7588C257.646 12.7054 257.459 12.672 257.259 12.6587C257.079 12.6453 256.906 12.6387 256.745 12.6387C255.618 12.6387 254.623 12.9523 253.769 13.5596C253.188 13.9801 252.701 14.4873 252.294 15.0879V13.1058H247.876V29.7031H252.461V20.8406C252.461 20.5736 252.514 20.1999 252.621 19.7394C252.721 19.2856 252.921 18.8385 253.215 18.398C253.502 17.9709 253.909 17.5972 254.423 17.2835C255.024 16.9231 255.898 16.7296 256.992 16.8564C257.172 16.8764 257.386 16.9231 257.64 16.9832L258 17.07V12.8189L257.8 12.7521V12.7588Z" fill="#0E1B62"/>
<path d="M104.8 47.8555H115.645V43.7378H104.8V38.9128H116.246V34.655H100.015V57.6657H116.846V53.3478H104.8V47.8555Z" fill="#0E1B62"/>
<path d="M132.923 42.7099C132.416 42.0759 131.768 41.5621 130.988 41.1817C130.207 40.7946 129.259 40.6011 128.171 40.6011C126.917 40.6011 125.809 40.9281 124.888 41.5687C124.287 41.9892 123.8 42.4563 123.426 42.9635V41.0682H119.042V57.6655H123.627V48.5694C123.627 48.0689 123.7 47.5617 123.847 47.0678C123.994 46.5806 124.207 46.1469 124.488 45.7731C124.761 45.4061 125.122 45.1058 125.549 44.8722C125.969 44.6386 126.483 44.5252 127.077 44.5252C127.671 44.5252 128.125 44.6453 128.465 44.8722C128.812 45.1124 129.092 45.4194 129.293 45.7865C129.499 46.1669 129.633 46.6007 129.693 47.0745C129.76 47.575 129.793 48.0555 129.793 48.5026V57.6655H134.378V47.3681C134.378 46.5273 134.264 45.693 134.031 44.8855C133.797 44.0714 133.424 43.3439 132.93 42.7166L132.923 42.7099Z" fill="#0E1B62"/>
<path d="M151.336 42.9436C150.621 42.1961 149.761 41.6222 148.78 41.2418C147.805 40.8614 146.731 40.6746 145.59 40.6746C144.355 40.6746 143.194 40.8881 142.126 41.3152C141.058 41.7423 140.124 42.343 139.343 43.1104C138.562 43.8779 137.942 44.8189 137.494 45.9067C137.047 46.9945 136.82 48.2158 136.82 49.5371C136.82 50.8585 137.047 52.1065 137.494 53.1676C137.942 54.2354 138.576 55.1496 139.37 55.8904C140.164 56.6245 141.112 57.1984 142.186 57.5989C143.26 57.9993 144.448 58.1995 145.723 58.1995C148.806 58.1995 151.202 57.085 152.83 54.876L152.997 54.6491L149.867 52.1465L149.687 52.4068C149.273 53.0074 148.733 53.4879 148.092 53.8349C147.452 54.1753 146.644 54.3488 145.69 54.3488C145.149 54.3488 144.622 54.2554 144.121 54.0685C143.621 53.8817 143.167 53.6214 142.767 53.3011C142.373 52.9807 142.059 52.5936 141.819 52.1532C141.625 51.7995 141.505 51.4124 141.439 50.9987H153.545L153.578 50.7451C153.605 50.5515 153.618 50.3647 153.618 50.1711V49.6372C153.618 48.1624 153.418 46.8543 153.017 45.7532C152.617 44.6387 152.05 43.6977 151.336 42.9503V42.9436ZM141.439 47.5417C141.572 46.6208 141.986 45.88 142.687 45.266C143.467 44.592 144.428 44.2516 145.55 44.2516C146.15 44.2516 146.677 44.3517 147.118 44.5453C147.552 44.7388 147.919 44.9991 148.199 45.3194C148.479 45.6464 148.693 46.0201 148.826 46.4472C148.933 46.7943 149 47.1613 149.02 47.535H141.439V47.5417Z" fill="#0E1B62"/>
<path d="M165.497 40.6211C165.31 40.6077 165.143 40.6011 164.976 40.6011C163.849 40.6011 162.854 40.9147 162 41.522C161.419 41.9425 160.932 42.4497 160.525 43.0503V41.0682H156.107V57.6655H160.692V48.803C160.692 48.536 160.745 48.169 160.852 47.7018C160.952 47.248 161.152 46.8009 161.446 46.3671C161.733 45.94 162.14 45.5596 162.661 45.2526C163.261 44.8855 164.149 44.6987 165.23 44.8255C165.41 44.8455 165.624 44.8922 165.877 44.9523L166.238 45.039V40.7879L166.038 40.7212C165.884 40.6678 165.704 40.6344 165.497 40.6211Z" fill="#0E1B62"/>
<path d="M180.319 42.9168C179.779 42.2361 179.111 41.7022 178.33 41.3285C177.316 40.848 176.208 40.6011 175.034 40.6011C173.799 40.6011 172.658 40.8347 171.657 41.2951C170.656 41.7556 169.795 42.3829 169.094 43.1637C168.393 43.9446 167.846 44.8722 167.466 45.9266C167.092 46.9744 166.898 48.1089 166.898 49.2968C166.898 50.4847 167.099 51.5792 167.486 52.6203C167.873 53.6614 168.427 54.589 169.127 55.3631C169.828 56.1439 170.696 56.7779 171.71 57.2384C172.725 57.6989 173.866 57.9325 175.1 57.9325C176.248 57.9325 177.303 57.7122 178.244 57.2851C178.964 56.9514 179.592 56.5043 180.119 55.9437V56.3909C180.119 57.165 180.039 57.8858 179.879 58.5331C179.725 59.1604 179.458 59.7077 179.098 60.1615C178.737 60.6086 178.25 60.969 177.643 61.2292C177.022 61.4895 176.248 61.623 175.341 61.623C174.38 61.623 173.419 61.4361 172.478 61.0624C171.537 60.6887 170.682 60.1414 169.935 59.434L169.695 59.2071L167.032 62.7909L167.245 62.9644C167.773 63.3982 168.373 63.7919 169.034 64.1323C169.688 64.4726 170.382 64.7596 171.096 64.9865C171.81 65.2134 172.544 65.3802 173.278 65.4937C174.013 65.6071 174.713 65.6672 175.374 65.6672C176.962 65.6672 178.357 65.4336 179.518 64.9798C180.686 64.5193 181.674 63.8586 182.441 63.0178C183.215 62.1769 183.789 61.1358 184.156 59.9346C184.517 58.7467 184.704 57.3986 184.704 55.9304V41.0616H180.319V42.9101V42.9168ZM174.053 53.608C173.525 53.341 173.072 52.9806 172.711 52.5335C172.344 52.0864 172.057 51.5725 171.857 51.0053C171.657 50.4447 171.557 49.8507 171.557 49.2434C171.557 48.5694 171.657 47.9287 171.857 47.3414C172.057 46.7608 172.337 46.247 172.704 45.8265C173.065 45.4061 173.512 45.0657 174.039 44.8188C174.566 44.5719 175.18 44.4451 175.868 44.4451C176.555 44.4451 177.176 44.5719 177.716 44.8188C178.257 45.0657 178.724 45.4128 179.104 45.8465C179.492 46.287 179.792 46.8009 179.999 47.3815C180.212 47.9688 180.312 48.5961 180.312 49.2434C180.312 49.8908 180.206 50.4847 179.999 51.0586C179.792 51.6259 179.492 52.1398 179.104 52.5802C178.724 53.014 178.25 53.361 177.696 53.6213C176.622 54.1285 175.114 54.1485 174.046 53.608H174.053Z" fill="#0E1B62"/>
<path d="M195.528 52.2468L191.31 41.2621L191.237 41.0752H186.158L193.159 57.3855L192.405 59.3009C192.231 59.7146 192.065 60.075 191.911 60.3887C191.771 60.6689 191.611 60.9092 191.424 61.1027C191.257 61.2762 191.05 61.4097 190.81 61.4965C190.41 61.6299 189.842 61.67 189.155 61.5832C188.921 61.5565 188.674 61.4965 188.427 61.4097L188.08 61.2963L187.687 65.3805L187.927 65.4406C188.301 65.534 188.668 65.6008 189.021 65.6341C189.368 65.6675 189.722 65.6875 190.069 65.6875C190.983 65.6875 191.784 65.5807 192.445 65.3739C193.112 65.1603 193.7 64.8466 194.193 64.4395C194.687 64.0325 195.114 63.5186 195.461 62.9313C195.802 62.3507 196.122 61.6833 196.416 60.9359L204.144 41.0885H199.339L195.528 52.2602V52.2468Z" fill="#0E1B62"/>
<path d="M75.9702 10.1362C75.9702 13.8067 72.9938 16.7831 69.3233 16.7831C65.6528 16.7831 62.6764 13.8067 62.6764 10.1362C62.6764 6.46569 65.6528 3.48926 69.3233 3.48926C72.9938 3.48926 75.9702 6.46569 75.9702 10.1362Z" fill="#7CC24D"/>
<path d="M82.1567 26.6867C85.3334 25.2919 86.7749 21.588 85.3801 18.418C83.9853 15.2547 80.2815 13.8066 77.1115 15.208C73.9415 16.6028 72.5 20.3067 73.8881 23.47C75.2829 26.6466 78.9868 28.0881 82.1567 26.6867Z" fill="#7CC24D"/>
<path d="M81.9498 40.7079C85.2399 40.8947 88.0495 38.3788 88.2363 35.0953C88.4365 31.8119 85.9072 29.0023 82.6238 28.8088C79.3404 28.6153 76.5308 31.1312 76.3373 34.4213C76.1571 37.7047 78.6663 40.521 81.9498 40.7079Z" fill="#7CC24D"/>
<path d="M74.6355 52.3135C77.325 53.8818 80.8086 52.9741 82.3769 50.2713C83.9452 47.5685 83.0376 44.1049 80.3415 42.5366C77.6386 40.955 74.1684 41.8759 72.5934 44.5721C71.0117 47.2682 71.926 50.7385 74.6355 52.3201" fill="#7CC24D"/>
<path d="M62.9099 58.6601C64.5049 61.156 67.8484 61.8835 70.3377 60.2751C72.8336 58.6668 73.5477 55.3433 71.9527 52.834C70.331 50.3381 67.0075 49.6173 64.5116 51.2324C62.0157 52.834 61.2816 56.1642 62.9032 58.6601" fill="#7CC24D"/>
<path d="M50.0566 58.6934C50.3502 61.503 52.8528 63.5518 55.6557 63.2649C58.472 62.9779 60.5141 60.4753 60.2272 57.6724C59.9469 54.8628 57.4443 52.814 54.6347 53.0943C51.8117 53.3812 49.7696 55.8838 50.0566 58.6934Z" fill="#7CC24D"/>
<path d="M33.2991 42.9236C31.3971 44.6187 31.2302 47.5351 32.932 49.4304C34.6271 51.3391 37.5368 51.4992 39.4388 49.7975C41.3408 48.109 41.5009 45.186 39.8058 43.2907C38.1107 41.3887 35.201 41.2219 33.2991 42.917" fill="#7CC24D"/>
<path d="M30.256 32.8664C27.9135 33.4804 26.5254 35.8829 27.1394 38.2186C27.7534 40.5677 30.1625 41.9559 32.4983 41.3419C34.8207 40.7212 36.2222 38.3321 35.6149 35.9963C34.9942 33.6539 32.5984 32.2591 30.256 32.8731" fill="#7CC24D"/>
<path d="M33.0789 22.9761C30.8233 22.4956 28.6143 23.9171 28.1338 26.1661C27.6466 28.4085 29.0748 30.6308 31.3171 31.118C33.5661 31.6118 35.7884 30.177 36.2689 27.928C36.7561 25.6856 35.328 23.4633 33.0856 22.9761" fill="#7CC24D"/>
<path d="M38.251 14.3072C35.9953 13.8267 33.7863 15.2482 33.3058 17.4972C32.8186 19.7395 34.2468 21.9618 36.4824 22.449C38.7315 22.9429 40.9538 21.508 41.4343 19.2657C41.9214 17.0234 40.4933 14.801 38.251 14.3139" fill="#7CC24D"/>
<path d="M39.3455 54.1553C39.3455 51.5125 41.4877 49.377 44.1238 49.377C46.7599 49.377 48.9021 51.5192 48.9021 54.1553C48.9021 56.7913 46.7599 58.9336 44.1238 58.9336C41.4877 58.9336 39.3455 56.7913 39.3455 54.1553Z" fill="#7CC24D"/>
<path d="M12.2839 54.1555C12.2839 50.485 15.2604 47.5085 18.9309 47.5085C22.6014 47.5085 25.5778 50.485 25.5778 54.1555C25.5778 57.826 22.6014 60.8024 18.9309 60.8024C15.2604 60.8024 12.2839 57.826 12.2839 54.1555Z" fill="#00A98E"/>
<path d="M6.09078 37.6049C2.91414 38.9997 1.47264 42.7036 2.86742 45.8735C4.26221 49.0368 7.96607 50.485 11.136 49.0835C14.306 47.6887 15.7475 43.9849 14.3594 40.8216C12.9646 37.6449 9.26075 36.2034 6.09078 37.6049Z" fill="#00A98E"/>
<path d="M6.29767 23.5835C3.00757 23.3966 0.197975 25.9126 0.0111134 29.196C-0.189095 32.4794 2.34021 35.289 5.62363 35.4826C8.90705 35.6761 11.7166 33.1601 11.9102 29.8701C12.0904 26.5866 9.58109 23.7704 6.29767 23.5835Z" fill="#00A98E"/>
<path d="M13.6186 11.9782C10.9292 10.4099 7.44553 11.3175 5.87723 14.0203C4.30893 16.7231 5.21654 20.1867 7.91269 21.755C10.6155 23.3367 14.0858 22.4157 15.6608 19.7196C17.2424 17.0234 16.3281 13.5532 13.6186 11.9715" fill="#00A98E"/>
<path d="M25.3442 5.63172C23.7492 3.13579 20.4057 2.40836 17.9165 4.01671C15.4205 5.62505 14.7065 8.94851 16.3015 11.4578C17.9231 13.9537 21.2466 14.6745 23.7425 13.0595C26.2385 11.4578 26.9726 8.12766 25.3509 5.63172" fill="#00A98E"/>
<path d="M38.1909 5.59825C37.8973 2.78865 35.3947 0.739853 32.5917 1.02682C29.7755 1.31378 27.7333 3.81639 28.0203 6.61931C28.3006 9.42891 30.8032 11.4777 33.6128 11.1974C36.4357 10.9105 38.4779 8.40784 38.1909 5.59825Z" fill="#00A98E"/>
<path d="M54.9484 21.3681C56.8504 19.673 57.0173 16.7566 55.3155 14.8613C53.6204 12.9526 50.7107 12.7925 48.8087 14.4942C46.9067 16.1827 46.7466 19.1057 48.4417 21.001C50.1368 22.903 53.0465 23.0699 54.9484 21.3748" fill="#00A98E"/>
<path d="M57.9982 31.4252C60.3406 30.8112 61.7287 28.4087 61.1148 26.0729C60.5008 23.7238 58.0916 22.3357 55.7558 22.9497C53.4334 23.5703 52.032 25.9595 52.6393 28.2952C53.2599 30.6377 55.6557 32.0325 57.9982 31.4185" fill="#00A98E"/>
<path d="M55.1752 41.3156C57.4309 41.7961 59.6399 40.3746 60.1204 38.1256C60.6075 35.8832 59.1794 33.6609 56.9371 33.1737C54.688 32.6799 52.4657 34.1147 51.9852 36.3637C51.4981 38.6061 52.9262 40.8284 55.1685 41.3156" fill="#00A98E"/>
<path d="M49.9966 49.9845C52.2522 50.465 54.4612 49.0435 54.9417 46.7945C55.4289 44.5522 54.0007 42.3299 51.7651 41.8427C49.5161 41.3488 47.2937 42.7837 46.8132 45.026C46.3261 47.2684 47.7542 49.4907 49.9966 49.9778" fill="#00A98E"/>
<path d="M48.9021 10.1365C48.9021 12.7792 46.7599 14.9148 44.1238 14.9148C41.4877 14.9148 39.3455 12.7725 39.3455 10.1365C39.3455 7.50039 41.4877 5.35815 44.1238 5.35815C46.7599 5.35815 48.9021 7.50039 48.9021 10.1365Z" fill="#00A98E"/>
</g>
<defs>
<clipPath id="clip0_8439_20660">
<rect width="258" height="66" fill="white"/>
</clipPath>
</defs>
</svg>
