<svg xmlns="http://www.w3.org/2000/svg" viewBox="0 0 43 40" width="43" height="40" aria-hidden="true" role="img">
  <title>AGL</title>
  <defs>
    <style>
      .cls-1 { fill: #158fd5; }
      .cls-2 { fill: #22b8e6; }
      .cls-3 { fill: #22c8ef; }
      .cls-4 { fill: #27d5f4; }
      .cls-5 { fill: #2adff7; }
    </style>
  </defs>
  <g>
    <path d="M24.52,25.15c-.72,0-1.4,.09-1.99,.27-.6,.18-1.09,.38-1.48,.61l-.04,.02,.27,.84,.06-.04c.41-.22,.87-.41,1.38-.55,.51-.14,1.12-.21,1.8-.21,.87,0,1.55,.2,2.01,.6,.46,.4,.69,1.1,.69,2.1v.66h-2.45c-1.49,0-2.64,.28-3.41,.84-.78,.56-1.17,1.41-1.17,2.54,0,.49,.08,.93,.25,1.3,.17,.37,.4,.7,.7,.96,.29,.26,.65,.46,1.05,.59,.4,.13,.84,.19,1.29,.19,.89,0,1.66-.2,2.3-.58,.59-.36,1.09-.85,1.46-1.48l.24,1.89h.82v-6.9c0-1.12-.32-2.01-.94-2.67-.63-.65-1.58-.99-2.84-.99Zm2.7,5.26v1.09c0,.42-.08,.83-.25,1.23-.17,.4-.41,.77-.72,1.1-.31,.33-.7,.59-1.16,.79-.46,.2-.99,.3-1.59,.3-.3,0-.6-.04-.87-.12-.27-.08-.52-.21-.72-.38-.2-.17-.37-.39-.48-.65-.12-.26-.18-.57-.18-.93,0-.84,.27-1.46,.81-1.84,.55-.39,1.46-.58,2.72-.58h2.45Z"/>
    <path d="M37.78,27.22c-.13-.21-.28-.41-.46-.62-.22-.26-.49-.5-.8-.71-.31-.21-.66-.39-1.05-.53-.39-.14-.82-.21-1.3-.21-.59,0-1.15,.12-1.66,.36-.52,.24-.98,.59-1.37,1.05-.39,.46-.71,1.02-.94,1.68-.23,.65-.34,1.41-.34,2.25,0,.95,.11,1.78,.33,2.45,.22,.68,.53,1.24,.93,1.68,.39,.44,.87,.76,1.41,.96,.54,.2,1.13,.3,1.75,.3,.82,0,1.53-.2,2.13-.61,.53-.36,.98-.84,1.34-1.42v1.3c0,.7-.08,1.3-.24,1.79-.16,.48-.38,.88-.67,1.18-.28,.3-.63,.51-1.03,.64-.4,.13-.86,.2-1.36,.2-.66,0-1.27-.08-1.82-.23-.55-.15-1.03-.34-1.42-.55l-.06-.03-.29,.9,.05,.02c.4,.21,.9,.41,1.51,.6,.61,.19,1.28,.28,2,.28,1.38,0,2.48-.4,3.26-1.19,.78-.79,1.18-2,1.18-3.59v-9.86h-.84l-.24,1.89Zm-.02,1.27v2.66c0,.46-.07,.92-.22,1.36-.15,.44-.36,.85-.65,1.2-.28,.35-.64,.64-1.06,.85-.42,.21-.92,.32-1.47,.32-.43,0-.86-.08-1.26-.23-.41-.15-.77-.4-1.08-.75-.31-.35-.56-.8-.75-1.36-.19-.56-.28-1.25-.28-2.06,0-.74,.09-1.39,.27-1.94,.18-.54,.43-1,.73-1.35,.3-.35,.66-.62,1.05-.79,.39-.17,.82-.26,1.26-.26,.72,0,1.38,.21,1.96,.64,.58,.42,1.09,.99,1.5,1.7Z"/>
    <rect x="41.44" y="21.27" width="1.1" height="14.44"/>
  </g>
  <g>
    <path class="cls-1" d="M4.33,7.96c.74-.6,1.84-.48,2.44,.27l9.37,11.69c.6,.74,.48,1.84-.27,2.44h0c-.74,.6-1.84,.48-2.44-.27L4.07,10.4c-.6-.74-.48-1.84,.27-2.44h0Z"/>
    <path class="cls-4" d="M.49,27.42c.16-.94,1.06-1.58,2-1.43l10.85,1.81c.94,.16,1.58,1.06,1.43,2h0c-.16,.94-1.06,1.58-2,1.43l-10.85-1.81c-.94-.16-1.58-1.06-1.43-2H.49Z"/>
    <path class="cls-2" d="M18.14,.01c.95-.11,1.81,.58,1.92,1.52l1.73,14.88c.11,.95-.58,1.81-1.52,1.92h0c-.95,.11-1.81-.58-1.92-1.52l-1.73-14.88c-.11-.95,.58-1.81,1.52-1.92h0Z"/>
    <path class="cls-3" d="M30.73,3.98c.9,.33,1.36,1.33,1.04,2.23l-4.1,11.25c-.33,.9-1.33,1.36-2.23,1.04h0c-.9-.33-1.36-1.33-1.04-2.23l4.1-11.25c.33-.9,1.33-1.36,2.23-1.04h0Z"/>
    <path class="cls-5" d="M37.58,13.06c.71,.64,.76,1.74,.12,2.45l-4.74,5.23c-.64,.71-1.74,.76-2.45,.12h0c-.71-.64-.76-1.74-.12-2.45l4.74-5.23c.64-.71,1.74-.76,2.45-.12h0Z"/>
  </g>
</svg>
