<svg width="226" height="80" viewBox="0 0 226 80" fill="none" xmlns="http://www.w3.org/2000/svg">
<path fill-rule="evenodd" clip-rule="evenodd" d="M225.183 32.3307C195.006 12.1963 155.649 0 112.579 0C69.5097 0 30.165 12.1963 0 32.3307C30.0103 22.353 65.0929 16.1694 112.579 16.1694C160.066 16.1694 195.177 22.353 225.183 32.3307Z" fill="#00AAFF"/>
<path d="M95.3281 42.8046C93.0525 42.8046 91.9778 44.6039 91.6847 46.79C91.3549 49.2162 90.0767 57.6184 89.7959 59.7597C89.6249 61.0339 89.5353 62.3691 88.2937 62.9146C87.0521 63.4601 85.5499 62.6296 84.2635 61.5346L63.9134 44.205C62.8631 43.2972 61.5197 42.8005 60.1316 42.8046C57.2494 42.8046 54.4364 44.5917 54.4364 48.9557V76.0227C54.412 76.4624 54.4813 76.9061 54.6319 77.3173C54.7866 77.7325 55.0227 78.1111 55.328 78.4327C55.6333 78.7543 55.9997 79.0066 56.4068 79.1776C56.8139 79.3486 57.2535 79.4382 57.6931 79.4341C58.5806 79.4585 59.4395 79.141 60.0949 78.5426C60.7503 77.9442 61.1493 77.1178 61.2022 76.2344C61.2022 76.2344 63.2987 63.3339 63.5592 61.8969C63.8564 60.2197 64.1169 58.9129 65.733 58.4122C67.3492 57.9115 68.5664 58.799 70.6303 60.6105C72.6942 62.4179 89.8162 77.875 89.8162 77.875C90.3617 78.4042 91.009 78.8194 91.7214 79.0881C92.4338 79.3567 93.1909 79.4748 93.9522 79.4341C95.6375 79.4341 98.6988 78.7502 98.6988 73.5924V46.6719C98.6988 44.1643 97.1519 42.8005 95.2834 42.8005" fill="#00AAFF"/>
<path d="M218.171 71.6387C203.219 74.8587 186.105 71.4229 186.105 60.8428C186.105 52.8721 193.518 49.591 199.359 49.1269C205.486 48.6384 210.282 49.9248 212.74 52.4772C214.287 54.0852 213.88 56.259 210.839 56.4422C208.051 56.6132 202.869 56.7719 198.472 56.9429C196.001 57.0325 194.69 58.3514 194.69 60.1304C194.69 61.543 195.749 63.1469 198.586 63.1713C202.649 63.1713 212.993 63.2487 218.126 63.2609C221.542 63.2609 223.182 61.372 223.182 57.4762C223.182 51.3048 217.589 41.9337 201.216 41.9337C186.41 41.9337 175.639 49.3264 175.639 61.4046C175.639 78.4858 200.849 83.7576 219.323 77.3501C221.077 76.7598 222.661 75.4938 222.156 73.5357C221.712 71.8056 220.292 71.1461 218.171 71.602" fill="#00AAFF"/>
<path d="M44.5849 71.6387C29.6327 74.8587 12.5189 71.4229 12.5189 60.8428C12.5189 52.8721 19.9359 49.591 25.7857 49.1269C31.9042 48.6384 36.6956 49.9248 39.1666 52.4772C40.7135 54.0852 40.3065 56.259 37.2533 56.4422C34.4648 56.6132 29.2826 56.7719 24.8983 56.9429C22.4273 57.0325 21.1043 58.3514 21.1043 60.1304C21.1043 61.543 22.1627 63.1469 25.0001 63.1713C29.075 63.1713 39.419 63.2487 44.5524 63.2609C47.9719 63.2609 49.6083 61.372 49.6083 57.4762C49.6083 51.3048 44.0028 41.9337 27.6298 41.9337C12.8242 41.9337 2.05273 49.3264 2.05273 61.4046C2.05273 78.4858 27.2757 83.7576 45.7492 77.3501C47.5037 76.7598 49.0873 75.4938 48.5744 73.5357C48.1307 71.8056 46.7181 71.1461 44.589 71.602" fill="#00AAFF"/>
<path d="M160.432 55.1722C160.761 64.5108 161.637 72.2535 161.889 74.9769C162.211 78.4738 164.022 79.4752 165.842 79.4752C167.661 79.4752 169.428 78.5633 169.762 75.0095C170.023 72.0133 170.902 62.7684 171.346 53.6253C171.362 53.5358 171.354 53.4421 171.321 53.3566C171.289 53.2712 171.24 53.1938 171.171 53.1327C171.105 53.0717 171.02 53.0269 170.93 53.0106C170.841 52.9903 170.747 52.9903 170.662 53.0106L160.924 54.5942C160.786 54.6145 160.664 54.6837 160.57 54.7937C160.481 54.8995 160.432 55.0379 160.436 55.1763" fill="#00AAFF"/>
<path d="M165.867 41.9297C165.114 41.885 164.357 41.9949 163.648 42.2635C162.94 42.5322 162.297 42.9434 161.759 43.4726C161.222 44.0059 160.803 44.645 160.526 45.3492C160.253 46.0535 160.131 46.8066 160.172 47.5638C160.172 47.9627 160.229 49.0659 160.286 50.4459C160.29 50.5274 160.31 50.6088 160.351 50.678C160.387 50.7513 160.44 50.8123 160.501 50.8652C160.567 50.9182 160.636 50.9548 160.717 50.9792C160.795 51.0036 160.876 51.0118 160.957 50.9996L171.118 49.3468C171.253 49.3265 171.375 49.2573 171.46 49.1555C171.55 49.0537 171.603 48.9234 171.607 48.7891V47.5923C171.639 46.831 171.517 46.0657 171.236 45.3574C170.955 44.6491 170.536 44.0018 169.991 43.4644C169.445 42.9312 168.798 42.5119 168.085 42.2432C167.369 41.9745 166.608 41.8565 165.847 41.9012" fill="#00AAFF"/>
<path d="M150.981 56.8206C147.565 56.8206 137.136 56.898 130.484 56.9102C127.24 56.9102 126.429 58.6647 126.429 60.1098C126.429 61.3637 127.297 62.9798 130.325 63.1386C134.937 63.3909 140.804 63.6637 143.515 63.798C147.158 63.9812 147.215 65.862 145.986 67.4659C143.503 70.6859 137.482 72.8027 131.18 72.8027C123.014 72.8027 114.03 68.1457 114.03 60.7775C114.03 53.8774 121.715 46.2568 144.573 49.4687C146.588 49.7536 148.567 49.3913 149.059 47.535C149.548 45.6787 148.294 44.2783 145.701 43.6066C140.995 42.4057 136.151 41.8358 131.294 41.9091C115.898 41.9091 103.563 49.2651 103.563 61.1316C103.563 73.796 115.861 80 131.18 80C148.261 80 156.631 70.6859 156.631 62.5442C156.631 58.4001 154.522 56.8491 150.936 56.8491" fill="#00AAFF"/>
</svg>
